<?xml version="1.0" standalone="no"?>
<!DOCTYPE svg PUBLIC "-//W3C//DTD SVG 20010904//EN"
 "http://www.w3.org/TR/2001/REC-SVG-20010904/DTD/svg10.dtd">
<svg version="1.0" xmlns="http://www.w3.org/2000/svg"
 width="512.000000pt" height="512.000000pt" viewBox="0 0 512.000000 512.000000"
 preserveAspectRatio="xMidYMid meet">
<metadata>
Created by potrace 1.14, written by Peter Selinger 2001-2017
</metadata>
<g transform="translate(0.000000,512.000000) scale(0.100000,-0.100000)"
fill="#000000" stroke="none">
<path d="M1560 5008 c-30 -4 -64 -12 -75 -16 -184 -76 -297 -199 -341 -375
-16 -60 -15 -160 1 -244 5 -29 1 -38 -35 -75 -60 -63 -110 -141 -139 -222 -24
-65 -26 -84 -25 -216 1 -167 14 -230 74 -356 40 -83 88 -153 153 -223 40 -43
45 -62 22 -81 -11 -9 -23 -9 -47 -1 -111 36 -273 53 -391 39 -280 -32 -536
-217 -669 -485 -60 -119 -80 -203 -83 -341 -5 -217 57 -412 194 -616 70 -103
198 -241 296 -318 l28 -21 -99 -32 c-125 -40 -181 -67 -233 -112 -48 -41 -69
-77 -72 -124 -7 -112 87 -193 249 -216 34 -5 42 -9 36 -22 -45 -110 -62 -179
-62 -252 0 -64 4 -85 21 -111 40 -57 71 -73 145 -73 87 0 172 32 267 101 l73
52 13 -27 c7 -14 13 -30 13 -36 10 -90 61 -134 189 -160 15 -3 25 -10 22 -15
-19 -31 -22 -135 -6 -196 29 -107 122 -151 242 -114 54 16 155 76 179 105 11
13 19 10 56 -20 146 -120 308 -96 399 60 23 40 58 150 69 215 5 36 19 166 19
188 0 6 1 12 2 12 1 0 26 -4 56 -10 149 -26 236 -33 434 -34 213 -1 389 13
512 39 12 3 24 2 26 -2 3 -5 8 -44 11 -88 4 -44 9 -87 11 -95 2 -8 7 -28 10
-45 20 -119 63 -206 127 -260 96 -81 209 -75 328 17 l44 35 48 -38 c172 -136
347 -120 389 35 13 48 13 127 0 173 -10 34 -1 43 42 43 66 1 151 73 159 135 2
17 10 42 18 57 l15 26 59 -44 c99 -75 222 -122 292 -110 16 2 37 5 46 5 26 1
79 51 95 89 28 67 11 204 -37 304 -11 23 -20 45 -20 49 0 3 20 9 45 12 122 17
212 73 238 150 12 35 12 51 2 90 -22 88 -103 148 -278 205 l-117 39 62 54
c212 183 372 422 424 634 35 141 39 334 10 445 -89 336 -401 614 -725 647
-119 12 -239 3 -357 -27 -95 -25 -89 -25 -102 5 -6 14 -8 25 -4 25 8 0 100
109 134 160 150 220 182 536 77 744 -31 62 -81 128 -127 171 -24 23 -25 25
-14 81 32 158 -13 327 -118 447 -118 133 -321 199 -495 160 -67 -16 -249 -101
-340 -161 -179 -118 -227 -147 -302 -183 -173 -85 -244 -66 -583 152 -270 174
-413 222 -580 197z"/>
</g>
</svg>
